<svg width="247" height="39" viewBox="0 0 247 39" fill="none" xmlns="http://www.w3.org/2000/svg">
<path d="M21.8307 9.06574C20.6599 9.06529 19.5004 9.29977 18.4186 9.75585C17.3367 10.2119 16.3536 10.8806 15.5255 11.7238C14.6975 12.5669 14.0406 13.5679 13.5924 14.6697C13.1442 15.7714 12.9136 16.9523 12.9136 18.1449C12.9131 19.3377 13.1435 20.519 13.5914 21.6211C14.0394 22.7233 14.6963 23.7247 15.5244 24.5682C16.3525 25.4117 17.3357 26.0807 18.4178 26.537C19.4998 26.9932 20.6596 27.2279 21.8307 27.2275C23.0016 27.2275 24.161 26.9925 25.2427 26.5361C26.3244 26.0796 27.3072 25.4105 28.135 24.5671C28.9628 23.7236 29.6193 22.7223 30.0671 21.6204C30.5148 20.5185 30.7451 19.3375 30.7446 18.1449C30.7446 16.9526 30.5141 15.772 30.0661 14.6704C29.6181 13.5689 28.9615 12.5681 28.1338 11.725C27.3061 10.8819 26.3234 10.2131 25.2419 9.75684C24.1604 9.30056 23.0013 9.06574 21.8307 9.06574ZM23.2457 18.1449C23.2461 18.3344 23.2099 18.5222 23.139 18.6975C23.0681 18.8727 22.9639 19.032 22.8324 19.1662C22.701 19.3003 22.5449 19.4068 22.373 19.4795C22.2011 19.5521 22.0168 19.5895 21.8307 19.5895C21.6443 19.5899 21.4597 19.5529 21.2875 19.4804C21.1152 19.408 20.9587 19.3016 20.8269 19.1674C20.6951 19.0332 20.5907 18.8738 20.5196 18.6983C20.4484 18.5228 20.4121 18.3347 20.4125 18.1449C20.4125 17.9553 20.4492 17.7677 20.5205 17.5926C20.5918 17.4176 20.6964 17.2585 20.8281 17.1247C20.9599 16.9908 21.1162 16.8847 21.2883 16.8125C21.4603 16.7402 21.6446 16.7032 21.8307 16.7037C22.1038 16.7032 22.3711 16.7842 22.5995 16.9366L26.7416 12.3227L27.2983 12.8391L23.1032 17.5138C23.1991 17.7121 23.2479 17.9306 23.2457 18.1516V18.1449Z" fill="white"/>
<path d="M23.5437 4.31681V4.70839C22.9744 4.63491 22.4011 4.59881 21.8273 4.60036C21.2545 4.59882 20.6822 4.63492 20.114 4.70839V4.31681C20.114 4.23536 20.1458 4.15729 20.2024 4.09969C20.2589 4.04209 20.3356 4.0097 20.4156 4.0097H23.2421C23.3221 4.0097 23.3988 4.04209 23.4554 4.09969C23.5119 4.15729 23.5437 4.23536 23.5437 4.31681Z" fill="white"/>
<path d="M37.952 9.89937L35.4468 8.94079L33.9855 12.1C33.0237 10.231 31.6599 8.60746 29.9959 7.35037C28.332 6.09328 26.4108 5.23512 24.3757 4.84001V3.82746C24.3715 3.65425 24.3021 3.48935 24.1818 3.36684C24.0615 3.24432 23.8996 3.1736 23.7296 3.16932H19.942C19.7719 3.1736 19.61 3.24432 19.4897 3.36684C19.3695 3.48935 19.3 3.65425 19.2958 3.82746V4.84001C15.7541 5.52551 12.619 7.60221 10.5675 10.6217L12.3702 11.4317L6.60432 13.7943L4.47363 7.88103L6.37238 8.73496C8.0117 6.06376 10.2907 3.86079 12.9953 2.33286C15.6999 0.804936 18.7413 0.00214081 21.8341 0C25.15 0.0038218 28.4023 0.927338 31.2419 2.67137C34.0815 4.4154 36.4012 6.91413 37.952 9.89937Z" fill="white"/>
<path d="M42.7633 32.037L41.0799 30.1841V32.037H36.1856C33.4626 34.6754 30.0055 36.3919 26.2876 36.9513H41.0899V39L42.9522 36.9513L45.0929 34.5887L42.7633 32.037Z" fill="white"/>
<path d="M21.8306 29.7352C18.8157 29.7325 15.9252 28.5117 13.7931 26.3407C11.661 24.1697 10.4615 21.2258 10.458 18.155C10.4606 15.0837 11.6596 12.139 13.7919 9.96721C15.9241 7.79545 18.8152 6.57421 21.8306 6.57153C24.8454 6.57511 27.7357 7.79671 29.8672 9.96836C31.9987 12.14 33.1973 15.0843 33.1999 18.155C33.1964 21.2252 31.9975 24.1686 29.8661 26.3395C27.7347 28.5105 24.8448 29.7316 21.8306 29.7352ZM21.8306 7.22292C18.9851 7.22649 16.2571 8.37942 14.2451 10.4288C12.233 12.4782 11.101 15.2567 11.0975 18.155C11.101 21.053 12.233 23.8312 14.2452 25.8801C16.2574 27.9289 18.9854 29.0812 21.8306 29.0838C24.6752 29.0803 27.4024 27.9277 29.4138 25.8789C31.4253 23.8301 32.5569 21.0524 32.5604 18.155C32.5578 15.257 31.4266 12.4785 29.415 10.429C27.4035 8.37949 24.6758 7.22649 21.8306 7.22292Z" fill="white"/>
<path d="M22.8181 5.45435H20.8398V6.79091H22.8181V5.45435Z" fill="white"/>
<path d="M23.2323 7.21279H20.4255V5.03583H23.2323V7.21279ZM21.0982 6.49054H22.5596V5.87624H21.0982V6.49054Z" fill="white"/>
<path d="M23.0368 3.58789H20.6178C20.1109 3.58789 19.7 4.00571 19.7 4.52112C19.7 5.03653 20.1109 5.45435 20.6178 5.45435H23.0368C23.5438 5.45435 23.9547 5.03653 23.9547 4.52112C23.9547 4.00571 23.5438 3.58789 23.0368 3.58789Z" fill="white"/>
<path d="M41.1462 11.5701L35.5594 9.42694L33.0972 14.7496L34.8171 14.0745C35.3057 15.5234 35.5543 17.045 35.5527 18.577C35.5511 21.0544 34.9031 23.4869 33.6752 25.6255C32.4472 27.764 30.6833 29.5318 28.5641 30.7478C28.0151 31.0593 27.4367 31.3137 26.8377 31.5072C25.7834 31.8611 24.6804 32.0411 23.5703 32.0405H0L2.5085 34.5954L0.188904 36.9581H21.9864C26.2848 36.9944 30.4536 35.4605 33.7368 32.6345L33.7666 32.6008L33.866 32.5164C34.0383 32.3611 34.1974 32.2059 34.3763 32.0439H34.3366L34.9132 31.4802C35.0689 31.3283 35.2213 31.1697 35.3671 31.0043C38.3929 27.6007 40.0666 23.1719 40.0626 18.5803C40.0639 16.4794 39.712 14.3938 39.0222 12.4139L41.1462 11.5701Z" fill="white"/>
<path d="M8.10527 18.5735C8.10383 16.7006 8.47351 14.8467 9.19218 13.1227L6.296 14.3108L5.13952 11.0976C4.11651 13.4521 3.58937 15.9988 3.59205 18.5735C3.58766 23.2807 5.34636 27.8122 8.50953 31.2439H16.0416C13.6725 30.1196 11.6674 28.3303 10.2617 26.0861C8.85595 23.8418 8.10786 21.2356 8.10527 18.5735Z" fill="white"/>
<path d="M62.6665 25.4185H56.2328L55.1092 29.1259H50.0928L57.23 9.28827H61.6428L68.8392 29.1259H63.7962L62.6665 25.4185ZM57.3646 21.7255H61.551L59.4446 14.8547L57.3646 21.7255Z" fill="white"/>
<path d="M85.9298 26.673C85.2053 27.4885 84.1483 28.1469 82.7589 28.6482C81.2864 29.1608 79.7389 29.4144 78.1829 29.398C75.6339 29.398 73.5947 28.6032 72.0653 27.0136C70.5359 25.424 69.7202 23.2127 69.6182 20.3796L69.604 18.6619C69.604 16.7081 69.9438 15.0029 70.6236 13.5462C71.2433 12.1541 72.2564 10.9819 73.5335 10.1793C74.8572 9.37829 76.3744 8.97037 77.9137 9.00168C80.3404 9.00168 82.2246 9.56661 83.5664 10.6965C84.9082 11.8264 85.6906 13.5144 85.9135 15.7603H81.3926C81.2322 14.6526 80.8842 13.8619 80.3486 13.3883C79.8129 12.9148 79.055 12.6787 78.0748 12.6801C77.5275 12.6625 76.9856 12.7948 76.5057 13.0634C76.0257 13.3319 75.6254 13.7267 75.3464 14.2067C74.7047 15.2244 74.3791 16.6783 74.3696 18.5684V19.7668C74.3696 21.7483 74.702 23.2362 75.3668 24.2304C76.0315 25.2246 77.077 25.7217 78.5031 25.7217C79.7266 25.7217 80.6361 25.4448 81.2315 24.8909V21.8127H77.9688V18.531H85.9217L85.9298 26.673Z" fill="white"/>
<path d="M93.6604 29.1259H88.9805V9.28827H93.6604V29.1259Z" fill="white"/>
<path d="M101.619 25.4475H109.792V29.128H96.925V9.28827H101.615L101.619 25.4475Z" fill="white"/>
<path d="M123.851 20.7057H116.467V25.4475H125.189V29.128H111.775V9.28827H125.217V12.9854H116.467V17.1664H123.851V20.7057Z" fill="white"/>
<path d="M127.101 29.1259V9.28821H133.376C134.999 9.26293 136.6 9.67341 138.017 10.4783C139.382 11.2661 140.497 12.4341 141.233 13.8452C142.017 15.3437 142.42 17.0181 142.406 18.7158V19.6297C142.433 21.328 142.044 23.0064 141.274 24.5128C140.548 25.9235 139.444 27.0954 138.091 27.8921C136.698 28.7108 135.116 29.1367 133.509 29.1259H127.101ZM131.791 12.9812V25.4433H133.423C134.769 25.4433 135.803 24.9587 136.527 23.9894C137.25 23.0201 137.611 21.5662 137.609 19.6276V18.7678C137.609 16.8528 137.248 15.4085 136.527 14.4351C135.805 13.4616 134.752 12.977 133.37 12.9812H131.791Z" fill="white"/>
<path d="M149.822 29.1259H145.132V9.28827H149.822V29.1259Z" fill="white"/>
<path d="M163.124 23.8524C163.139 23.5406 163.08 23.2297 162.954 22.9454C162.827 22.6612 162.636 22.4117 162.396 22.2177C161.91 21.8272 161.057 21.4229 159.835 21.0048C158.811 20.6679 157.81 20.2627 156.839 19.7918C154.314 18.5303 153.052 16.7953 153.052 14.5867C153.036 13.5371 153.368 12.5128 153.994 11.6789C154.691 10.7885 155.614 10.1097 156.664 9.71612C157.9 9.2338 159.215 8.99621 160.538 9.01614C161.833 8.99398 163.117 9.2539 164.304 9.77844C165.354 10.2351 166.252 10.9892 166.892 11.951C167.512 12.9054 167.834 14.0283 167.816 15.1725H163.126C163.126 14.3638 162.882 13.7407 162.396 13.3031C161.909 12.8656 161.252 12.6427 160.424 12.6343C159.586 12.6343 158.924 12.8227 158.438 13.1993C158.21 13.3602 158.025 13.5753 157.898 13.8257C157.771 14.0762 157.705 14.3546 157.708 14.6366C157.708 15.1461 157.975 15.6073 158.511 16.0199C159.047 16.4325 159.987 16.859 161.333 17.2993C162.485 17.6562 163.597 18.1336 164.651 18.7241C166.756 19.9593 167.808 21.6625 167.808 23.8336C167.808 25.5686 167.165 26.9312 165.881 27.9212C164.596 28.9113 162.835 29.4063 160.597 29.4063C159.126 29.4275 157.667 29.1323 156.315 28.5402C155.036 27.9627 154.072 27.1728 153.425 26.1703C152.77 25.1381 152.432 23.9305 152.455 22.7017H157.163C157.163 23.7651 157.435 24.5489 157.979 25.0529C158.523 25.5569 159.398 25.8089 160.605 25.8089C161.382 25.8089 161.993 25.6386 162.441 25.298C162.664 25.134 162.843 24.9159 162.962 24.6634C163.082 24.411 163.137 24.1322 163.124 23.8524Z" fill="white"/>
<path d="M185.508 12.9854H179.662V29.1301H174.971V12.9854H169.233V9.28827H185.508V12.9854Z" fill="white"/>
<path d="M194.734 22.1076H192.191V29.1259H187.5V9.28827H195.166C197.477 9.28827 199.282 9.8103 200.582 10.8544C201.882 11.8984 202.533 13.3724 202.536 15.2763C202.536 16.661 202.264 17.8041 201.72 18.7055C201.176 19.6069 200.318 20.3422 199.144 20.9113L203.211 28.9203V29.128H198.18L194.734 22.1076ZM192.191 18.4292H195.162C196.053 18.4292 196.724 18.1925 197.174 17.7127C197.625 17.2329 197.849 16.5683 197.849 15.7105C197.849 14.8526 197.623 14.1838 197.166 13.6978C196.71 13.2118 196.043 12.9667 195.162 12.9667H192.191V18.4292Z" fill="white"/>
<path d="M210.37 29.1259H205.68V9.28827H210.37V29.1259Z" fill="white"/>
<path d="M229.39 22.4088C229.352 23.7058 228.974 24.9689 228.295 26.0664C227.604 27.1428 226.627 27.996 225.476 28.5256C224.178 29.1267 222.765 29.4247 221.339 29.398C218.78 29.398 216.764 28.5485 215.291 26.8495C213.817 25.1505 213.082 22.7522 213.084 19.6547V18.6743C213.084 16.7357 213.417 15.0354 214.081 13.5732C214.688 12.1822 215.687 11.006 216.951 10.1938C218.254 9.38423 219.757 8.97061 221.284 9.00162C223.647 9.00162 225.55 9.6351 226.994 10.9021C228.437 12.1691 229.253 13.9151 229.441 16.1403H224.751C224.715 14.9343 224.416 14.0668 223.853 13.5378C223.29 13.0089 222.435 12.7458 221.286 12.7486C220.117 12.7486 219.26 13.1937 218.717 14.0841C218.173 14.9744 217.888 16.3958 217.862 18.3482V19.7523C217.862 21.8681 218.123 23.3801 218.645 24.2885C219.167 25.1968 220.066 25.651 221.341 25.651C222.419 25.651 223.244 25.3921 223.815 24.8742C224.385 24.3563 224.689 23.5346 224.724 22.4088H229.39Z" fill="white"/>
<path d="M246.513 12.9854H240.667V29.1301H235.976V12.9854H230.238V9.28827H246.517L246.513 12.9854Z" fill="white"/>
</svg>
