<svg width="189" height="30" viewBox="0 0 189 30" fill="none" xmlns="http://www.w3.org/2000/svg">
<path d="M16.6697 20.9489C20.4302 20.9489 23.4787 17.8209 23.4787 13.9622C23.4787 10.1036 20.4302 6.97559 16.6697 6.97559C12.9091 6.97559 9.8606 10.1036 9.8606 13.9622C9.8606 17.8209 12.9091 20.9489 16.6697 20.9489Z" fill="#DDDAD4"/>
<path d="M16.6696 15.074C17.2678 15.074 17.7526 14.5765 17.7526 13.9628C17.7526 13.3491 17.2678 12.8516 16.6696 12.8516C16.0715 12.8516 15.5867 13.3491 15.5867 13.9628C15.5867 14.5765 16.0715 15.074 16.6696 15.074Z" fill="#341B0B"/>
<path d="M20.3884 9.48923L16.4243 13.939L16.8483 14.3366L20.8123 9.88687L20.3884 9.48923Z" fill="#341B0B"/>
<path d="M16.6672 0C14.3056 0.0016468 11.9831 0.619125 9.91792 1.79447C7.85271 2.96981 6.11253 4.66442 4.86075 6.71921L3.41089 6.0624L5.03786 10.6111L9.44065 8.79365L8.06417 8.17056C9.02625 6.74224 10.3116 5.57464 11.81 4.76792C13.3084 3.9612 14.9751 3.53941 16.6672 3.53873C18.5803 3.54012 20.4565 4.07839 22.0929 5.09525C23.7293 6.1121 25.0634 7.56886 25.9509 9.30778L27.0668 6.87761L28.9797 7.61498C27.7951 5.31784 26.0231 3.39515 23.8538 2.05353C21.6845 0.7119 19.2001 0.00199706 16.6672 0Z" fill="#D0D2D3"/>
<path d="M32.6537 24.6436L31.3683 23.2183V24.6436H27.631C25.5518 26.6732 22.9119 27.9935 20.073 28.4239H31.3759V29.9998L32.798 28.4239L34.4325 26.6065L32.6537 24.6436Z" fill="#F9A11B"/>
<path d="M16.6696 22.8736C14.3675 22.8716 12.1603 21.9325 10.5322 20.2624C8.90415 18.5924 7.98828 16.3278 7.9856 13.9657C7.98761 11.6031 8.90315 9.33786 10.5313 7.66726C12.1594 5.99666 14.3671 5.05724 16.6696 5.05518C18.9717 5.05793 21.1787 5.99769 22.8063 7.66821C24.4339 9.33874 25.3491 11.6036 25.3511 13.9657C25.3484 16.3274 24.4329 18.5915 22.8054 20.2615C21.1779 21.9315 18.9712 22.8709 16.6696 22.8736ZM16.6696 5.55624C14.4968 5.55899 12.4138 6.44588 10.8774 8.02235C9.34095 9.59883 8.47661 11.7362 8.47393 13.9657C8.47661 16.1949 9.341 18.3321 10.8775 19.9081C12.414 21.4842 14.497 22.3705 16.6696 22.3725C18.8417 22.3698 20.9242 21.4832 22.4601 19.9072C23.996 18.3312 24.8601 16.1945 24.8628 13.9657C24.8608 11.7365 23.997 9.5991 22.461 8.02254C20.925 6.44599 18.8422 5.55899 16.6696 5.55624Z" fill="#ACADAE"/>
<path d="M17.4239 4.19531H15.9133V5.22345H17.4239V4.19531Z" fill="#D0D2D3"/>
<path d="M17.7402 5.54814H15.5969V3.87354H17.7402V5.54814ZM16.1106 4.99256H17.2265V4.52001H16.1106V4.99256Z" fill="#ACADAE"/>
<path d="M18.2916 2.76025H15.0427V4.19601H18.2916V2.76025Z" fill="#D0D2D3"/>
<path d="M17.5932 4.5204H15.7436C15.4751 4.5204 15.2177 4.41104 15.0279 4.21628C14.8381 4.02151 14.7314 3.75731 14.7314 3.48188C14.7314 3.20645 14.8381 2.94231 15.0279 2.74755C15.2177 2.55279 15.4751 2.44336 15.7436 2.44336H17.5932C17.8617 2.44336 18.1191 2.55279 18.3089 2.74755C18.4987 2.94231 18.6054 3.20645 18.6054 3.48188C18.6054 3.75731 18.4987 4.02151 18.3089 4.21628C18.1191 4.41104 17.8617 4.5204 17.5932 4.5204ZM15.7436 3.87393H17.5932C17.6952 3.87393 17.7931 3.83238 17.8652 3.75837C17.9373 3.68436 17.9779 3.58395 17.9779 3.47928C17.9779 3.37462 17.9373 3.27426 17.8652 3.20026C17.7931 3.12625 17.6952 3.08464 17.5932 3.08464H15.7436C15.6416 3.08464 15.5438 3.12625 15.4716 3.20026C15.3995 3.27426 15.359 3.37462 15.359 3.47928C15.359 3.58395 15.3995 3.68436 15.4716 3.75837C15.5438 3.83238 15.6416 3.87393 15.7436 3.87393Z" fill="#ACADAE"/>
<path d="M31.4189 8.90014L27.1528 7.25146L25.2727 11.3458L26.586 10.8266C26.9591 11.9411 27.1489 13.1116 27.1477 14.2901C27.1465 16.1958 26.6517 18.067 25.7141 19.7121C24.7764 21.3571 23.4295 22.717 21.8113 23.6524C21.3921 23.892 20.9504 24.0877 20.493 24.2365C19.688 24.5087 18.8457 24.6472 17.9981 24.6467H0L1.91546 26.6121L0.144245 28.4295H16.7887C20.0709 28.4575 23.2541 27.2775 25.7611 25.1037L25.7839 25.0777L25.8598 25.0128C25.9914 24.8934 26.1128 24.7739 26.2495 24.6493H26.2191L26.6594 24.2157C26.7783 24.0989 26.8947 23.9769 27.006 23.8497C29.3164 21.2315 30.5945 17.8247 30.5915 14.2927C30.5924 12.6766 30.3237 11.0722 29.797 9.54922L31.4189 8.90014Z" fill="#166460"/>
<path d="M6.18918 14.287C6.18808 12.8462 6.47037 11.4201 7.01913 10.0939L4.80764 11.0078L3.92456 8.53613C3.1434 10.3473 2.74088 12.3064 2.74293 14.287C2.73958 17.9079 4.0825 21.3937 6.49787 24.0335H12.2493C10.4402 23.1687 8.90921 21.7922 7.8358 20.0659C6.76239 18.3395 6.19116 16.3348 6.18918 14.287Z" fill="#F9A11B"/>
<path d="M47.8614 19.5593H42.9491L42.0912 22.411H38.261L43.7104 7.15234H47.0798L52.5744 22.411H48.7239L47.8614 19.5593ZM43.8132 16.7187H47.0097L45.4076 11.4275L43.8132 16.7187Z" fill="#166460"/>
<path d="M65.6234 20.5171C65.0702 21.1444 64.2631 21.6508 63.2023 22.0364C62.078 22.4307 60.8965 22.6257 59.7084 22.6131C57.7622 22.6131 56.2052 22.0017 55.0375 20.779C53.8697 19.5564 53.2469 17.8555 53.1691 15.6763L53.1582 14.3551C53.1582 12.8523 53.4177 11.5407 53.9367 10.4203C54.4098 9.34953 55.1834 8.44789 56.1585 7.83057C57.1688 7.21371 58.3275 6.89986 59.5029 6.92471C61.3557 6.92471 62.7944 7.35928 63.8189 8.22837C64.8434 9.09746 65.4407 10.3958 65.611 12.1233H62.1591C62.0367 11.2712 61.7709 10.6631 61.362 10.2988C60.953 9.9346 60.3743 9.75298 59.6259 9.75404C59.208 9.74052 58.7943 9.84236 58.4278 10.0489C58.0614 10.2555 57.7557 10.5592 57.5427 10.9283C57.0527 11.7111 56.8041 12.8294 56.7969 14.2832V15.2051C56.7969 16.7292 57.0507 17.8736 57.5582 18.6383C58.0658 19.403 58.864 19.7853 59.9529 19.7853C60.8871 19.7853 61.5815 19.5723 62.0361 19.1463V16.7787H59.545V14.2529H65.6172L65.6234 20.5171Z" fill="#166460"/>
<path d="M71.5259 22.4071H67.9526V7.14844H71.5259V22.4071Z" fill="#166460"/>
<path d="M77.603 19.5761H83.8434V22.4071H74.0188V7.14844H77.5999L77.603 19.5761Z" fill="#166460"/>
<path d="M94.5772 15.9304H88.9393V19.5761H95.5985V22.4071H85.3567V7.14844H95.6203V9.98897H88.9393V13.2049H94.5772V15.9304Z" fill="#166460"/>
<path d="M97.0591 22.4069V7.14831H101.85C103.089 7.12886 104.311 7.44459 105.394 8.06373C106.436 8.66965 107.287 9.56805 107.849 10.6534C108.447 11.806 108.755 13.0939 108.744 14.3998V15.1027C108.765 16.409 108.468 17.7 107.88 18.8587C107.326 19.9438 106.483 20.8451 105.45 21.4579C104.386 22.0877 103.179 22.4153 101.951 22.4069H97.0591ZM100.64 9.98884V19.5744H101.886C102.913 19.5744 103.703 19.199 104.255 18.4481C104.808 17.6972 105.083 16.5816 105.082 15.1011V14.4461C105.082 12.9731 104.807 11.8623 104.255 11.1135C103.704 10.3648 102.901 9.992 101.845 9.99519L100.64 9.98884Z" fill="#F9A11B"/>
<path d="M114.407 22.4071H110.826V7.14844H114.407V22.4071Z" fill="#F9A11B"/>
<path d="M124.563 18.3511C124.575 18.1113 124.53 17.8722 124.433 17.6535C124.337 17.4349 124.191 17.243 124.007 17.0938C123.637 16.7935 122.985 16.4824 122.052 16.1608C121.27 15.9017 120.506 15.59 119.765 15.2278C117.837 14.2586 116.873 12.9241 116.873 11.2242C116.861 10.4169 117.115 9.62899 117.593 8.98761C118.125 8.30273 118.83 7.78055 119.631 7.47785C120.574 7.10686 121.578 6.92415 122.589 6.93948C123.577 6.92244 124.558 7.12233 125.465 7.52579C126.266 7.87701 126.952 8.45705 127.441 9.19687C127.914 9.93096 128.16 10.7947 128.146 11.6747H124.565C124.565 11.0538 124.379 10.5745 124.007 10.2369C123.636 9.89928 123.134 9.72781 122.502 9.72248C121.862 9.72248 121.357 9.86732 120.985 10.157C120.812 10.2808 120.67 10.4462 120.573 10.6389C120.476 10.8316 120.426 11.0457 120.428 11.2626C120.428 11.6535 120.632 12.0081 121.041 12.3266C121.45 12.645 122.169 12.973 123.196 13.3107C124.075 13.5851 124.924 13.9524 125.729 14.4066C127.336 15.3567 128.14 16.6667 128.14 18.3367C128.14 19.6713 127.649 20.7193 126.668 21.4808C125.687 22.2423 124.343 22.6231 122.634 22.6231C121.511 22.6393 120.397 22.4123 119.364 21.9569C118.388 21.5127 117.652 20.9051 117.158 20.134C116.658 19.3401 116.4 18.4112 116.417 17.466H120.012C120.012 18.284 120.22 18.8868 120.635 19.2745C121.05 19.6622 121.719 19.8561 122.64 19.8561C123.233 19.8561 123.7 19.725 124.042 19.463C124.212 19.3369 124.349 19.1691 124.44 18.975C124.531 18.7808 124.573 18.5663 124.563 18.3511Z" fill="#F9A11B"/>
<path d="M141.654 9.98897H137.19V22.4071H133.609V9.98897H129.228V7.14844H141.654V9.98897Z" fill="#F9A11B"/>
<path d="M148.698 17.002H146.757V22.4002H143.176V7.1416H149.028C150.793 7.1416 152.171 7.54314 153.164 8.34619C154.156 9.14925 154.653 10.283 154.655 11.7475C154.655 12.8125 154.448 13.6918 154.032 14.3851C153.617 15.0785 152.962 15.644 152.066 16.0817L155.171 22.2421V22.4018H151.329L148.698 17.002ZM146.757 14.1726H149.025C149.706 14.1726 150.218 13.9905 150.562 13.6215C150.906 13.2524 151.077 12.7412 151.077 12.0814C151.077 11.4215 150.904 10.9071 150.556 10.5333C150.207 10.1595 149.698 9.97094 149.025 9.97094H146.757V14.1726Z" fill="#F9A11B"/>
<path d="M160.637 22.4071H157.056V7.14844H160.637V22.4071Z" fill="#F9A11B"/>
<path d="M175.159 17.24C175.131 18.2376 174.842 19.2092 174.323 20.0534C173.796 20.8809 173.049 21.537 172.172 21.9449C171.18 22.4072 170.101 22.6365 169.012 22.6159C167.059 22.6159 165.52 21.9625 164.394 20.6557C163.269 19.3488 162.708 17.5041 162.71 15.1216V14.3675C162.71 12.8764 162.964 11.5685 163.471 10.4438C163.934 9.37392 164.697 8.46925 165.662 7.84454C166.657 7.22181 167.805 6.90366 168.97 6.92752C170.774 6.92752 172.228 7.41481 173.33 8.38934C174.432 9.36388 175.055 10.7069 175.198 12.4185H171.617C171.59 11.4908 171.362 10.8235 170.932 10.4167C170.502 10.0098 169.849 9.80746 168.972 9.80959C168.079 9.80959 167.425 10.152 167.01 10.8368C166.595 11.5217 166.377 12.615 166.358 14.1167V15.1951C166.358 16.8246 166.557 17.9882 166.956 18.6858C167.354 19.3835 168.04 19.7328 169.014 19.7339C169.837 19.7339 170.467 19.5347 170.903 19.1364C171.339 18.738 171.57 18.1059 171.597 17.24H175.159Z" fill="#F9A11B"/>
<path d="M188.233 9.98897H183.769V22.4071H180.188V9.98897H175.807V7.14844H188.236L188.233 9.98897Z" fill="#F9A11B"/>
</svg>
