<svg width="16" height="16" viewBox="0 0 16 16" fill="none" xmlns="http://www.w3.org/2000/svg">
<circle cx="8" cy="8" r="8" fill="white"/>
<path d="M5.46997 4.50001C5.46984 4.76523 5.36435 5.01953 5.17672 5.20697C4.98909 5.39441 4.73469 5.49964 4.46947 5.49951C4.20425 5.49938 3.94995 5.3939 3.76251 5.20627C3.57507 5.01863 3.46984 4.76423 3.46997 4.49901C3.4701 4.2338 3.57559 3.97949 3.76322 3.79205C3.95085 3.60461 4.20525 3.49938 4.47047 3.49951C4.73569 3.49964 4.98999 3.60513 5.17743 3.79276C5.36487 3.98039 5.4701 4.2348 5.46997 4.50001ZM5.49997 6.24001H3.49997V12.5H5.49997V6.24001ZM8.65997 6.24001H6.66997V12.5H8.63997V9.21501C8.63997 7.38501 11.025 7.21501 11.025 9.21501V12.5H13V8.53501C13 5.45001 9.46997 5.56501 8.63997 7.08001L8.65997 6.24001Z" fill="#166460"/>
</svg>
