<svg width="31" height="25" viewBox="0 0 31 25" fill="none" xmlns="http://www.w3.org/2000/svg">
<path d="M20.0792 0C19.3239 0 18.6525 0.211506 18.065 0.634518C17.4565 1.05753 17.1523 1.52284 17.1523 2.03046C17.1523 2.34772 17.3516 2.71785 17.7503 3.14086C19.114 4.51565 20.0687 5.66836 20.6142 6.59898C21.1387 7.50846 21.401 8.43909 21.401 9.39086C21.401 10.0677 21.0548 10.681 20.3624 11.231C18.9986 12.2885 18.044 13.3037 17.4985 14.2766C16.953 15.2496 16.6802 16.4023 16.6802 17.7348C16.6802 19.8075 17.3411 21.5419 18.6629 22.9378C19.9848 24.3126 21.6423 25 23.6355 25C25.8596 25 27.6849 24.1223 29.1117 22.3668C30.3706 20.8016 31 18.9509 31 16.8147C31 11.7174 28.5557 6.72589 23.667 1.8401C22.4711 0.634518 21.2751 0.0211506 20.0792 0ZM3.39898 0C2.64366 0 1.97225 0.211506 1.38477 0.634518C0.776312 1.05753 0.472082 1.52284 0.472082 2.03046C0.472082 2.34772 0.681896 2.71785 1.10152 3.14086C2.44433 4.51565 3.38849 5.66836 3.93401 6.59898C4.45855 7.50846 4.72081 8.43909 4.72081 9.39086C4.72081 10.0677 4.37462 10.681 3.68223 11.231C2.31844 12.2885 1.36379 13.3037 0.818275 14.2766C0.272758 15.2496 0 16.4023 0 17.7348C0 19.8075 0.660913 21.5419 1.98274 22.9378C3.30457 24.3126 4.9621 25 6.95533 25C9.17936 25 11.0047 24.1223 12.4315 22.3668C13.6904 20.8016 14.3198 18.9509 14.3198 16.8147C14.3198 11.7174 11.8755 6.72589 6.9868 1.8401C5.79086 0.634518 4.59492 0.0211506 3.39898 0Z" fill="#151515"/>
</svg>
