<svg width="16" height="16" viewBox="0 0 16 16" fill="none" xmlns="http://www.w3.org/2000/svg">
<circle cx="8" cy="8" r="8" fill="white"/>
<path d="M7 9.5L9.595 8L7 6.5V9.5ZM12.78 5.585C12.845 5.82 12.89 6.135 12.92 6.535C12.955 6.935 12.97 7.28 12.97 7.58L13 8C13 9.095 12.92 9.9 12.78 10.415C12.655 10.865 12.365 11.155 11.915 11.28C11.68 11.345 11.25 11.39 10.59 11.42C9.94 11.455 9.345 11.47 8.795 11.47L8 11.5C5.905 11.5 4.6 11.42 4.085 11.28C3.635 11.155 3.345 10.865 3.22 10.415C3.155 10.18 3.11 9.865 3.08 9.465C3.045 9.065 3.03 8.72 3.03 8.42L3 8C3 6.905 3.08 6.1 3.22 5.585C3.345 5.135 3.635 4.845 4.085 4.72C4.32 4.655 4.75 4.61 5.41 4.58C6.06 4.545 6.655 4.53 7.205 4.53L8 4.5C10.095 4.5 11.4 4.58 11.915 4.72C12.365 4.845 12.655 5.135 12.78 5.585Z" fill="#166460"/>
</svg>
