<svg width="28" height="28" viewBox="0 0 28 28" fill="none" xmlns="http://www.w3.org/2000/svg">
<path d="M20.2299 6.37016C19.953 6.37016 19.6823 6.45227 19.4521 6.60611C19.2219 6.75994 19.0424 6.97859 18.9365 7.23441C18.8305 7.49022 18.8028 7.77172 18.8568 8.04329C18.9108 8.31486 19.0442 8.56432 19.24 8.76011C19.4358 8.95591 19.6852 9.08924 19.9568 9.14326C20.2284 9.19728 20.5099 9.16956 20.7657 9.06359C21.0215 8.95763 21.2401 8.77819 21.394 8.54796C21.5478 8.31773 21.6299 8.04706 21.6299 7.77016C21.6299 7.39886 21.4824 7.04276 21.2199 6.78021C20.9573 6.51766 20.6012 6.37016 20.2299 6.37016ZM25.5966 9.1935C25.5739 8.22551 25.3926 7.2678 25.0599 6.3585C24.7633 5.58048 24.3016 4.87599 23.7066 4.2935C23.1289 3.69549 22.4227 3.2367 21.6416 2.95183C20.7347 2.60902 19.7759 2.42357 18.8066 2.4035C17.5699 2.3335 17.1733 2.3335 13.9999 2.3335C10.8266 2.3335 10.4299 2.3335 9.19325 2.4035C8.22393 2.42357 7.26515 2.60902 6.35825 2.95183C5.57854 3.23959 4.87301 3.69798 4.29325 4.2935C3.69525 4.8712 3.23646 5.57734 2.95159 6.3585C2.60877 7.2654 2.42333 8.22417 2.40325 9.1935C2.33325 10.4302 2.33325 10.8268 2.33325 14.0002C2.33325 17.1735 2.33325 17.5702 2.40325 18.8068C2.42333 19.7762 2.60877 20.7349 2.95159 21.6418C3.23646 22.423 3.69525 23.1291 4.29325 23.7068C4.87301 24.3023 5.57854 24.7607 6.35825 25.0485C7.26515 25.3913 8.22393 25.5768 9.19325 25.5968C10.4299 25.6668 10.8266 25.6668 13.9999 25.6668C17.1733 25.6668 17.5699 25.6668 18.8066 25.5968C19.7759 25.5768 20.7347 25.3913 21.6416 25.0485C22.4227 24.7636 23.1289 24.3048 23.7066 23.7068C24.3042 23.1265 24.7663 22.4214 25.0599 21.6418C25.3926 20.7325 25.5739 19.7748 25.5966 18.8068C25.5966 17.5702 25.6666 17.1735 25.6666 14.0002C25.6666 10.8268 25.6666 10.4302 25.5966 9.1935ZM23.4966 18.6668C23.4881 19.4074 23.354 20.1411 23.0999 20.8368C22.9136 21.3446 22.6144 21.8033 22.2249 22.1785C21.8465 22.5641 21.3887 22.8627 20.8833 23.0535C20.1876 23.3075 19.4538 23.4417 18.7133 23.4502C17.5466 23.5085 17.1149 23.5202 14.0466 23.5202C10.9783 23.5202 10.5466 23.5202 9.37992 23.4502C8.61096 23.4646 7.84528 23.3462 7.11658 23.1002C6.63333 22.8996 6.1965 22.6017 5.83325 22.2252C5.44602 21.8504 5.15057 21.3912 4.96992 20.8835C4.68508 20.1778 4.5271 19.4274 4.50325 18.6668C4.50325 17.5002 4.43325 17.0685 4.43325 14.0002C4.43325 10.9318 4.43325 10.5002 4.50325 9.3335C4.50848 8.57639 4.64669 7.8261 4.91159 7.11683C5.11697 6.62439 5.43223 6.18543 5.83325 5.8335C6.1877 5.43236 6.62575 5.11377 7.11658 4.90016C7.82773 4.64355 8.57725 4.50942 9.33325 4.5035C10.4999 4.5035 10.9316 4.4335 13.9999 4.4335C17.0683 4.4335 17.4999 4.4335 18.6666 4.5035C19.4072 4.51199 20.1409 4.64612 20.8366 4.90016C21.3668 5.09692 21.8426 5.41682 22.2249 5.8335C22.6072 6.19187 22.906 6.63002 23.0999 7.11683C23.3592 7.82725 23.4934 8.57724 23.4966 9.3335C23.5549 10.5002 23.5666 10.9318 23.5666 14.0002C23.5666 17.0685 23.5549 17.5002 23.4966 18.6668ZM13.9999 8.01516C12.8167 8.01747 11.6607 8.37044 10.678 9.02948C9.69532 9.68852 8.93003 10.6241 8.47882 11.7179C8.02762 12.8117 7.91076 14.0147 8.14301 15.1749C8.37526 16.3351 8.94619 17.4005 9.78367 18.2363C10.6212 19.0722 11.6876 19.641 12.8483 19.871C14.0089 20.101 15.2117 19.9818 16.3046 19.5285C17.3976 19.0751 18.3316 18.308 18.9887 17.324C19.6459 16.3401 19.9966 15.1834 19.9966 14.0002C19.9981 13.2128 19.844 12.4329 19.543 11.7053C19.2421 10.9777 18.8002 10.3168 18.2429 9.76055C17.6856 9.20434 17.0239 8.76379 16.2957 8.46425C15.5675 8.16471 14.7873 8.01209 13.9999 8.01516ZM13.9999 17.8852C13.2315 17.8852 12.4804 17.6573 11.8415 17.2304C11.2026 16.8035 10.7047 16.1968 10.4106 15.4869C10.1166 14.777 10.0397 13.9959 10.1896 13.2422C10.3395 12.4886 10.7095 11.7964 11.2528 11.2531C11.7961 10.7097 12.4884 10.3397 13.242 10.1898C13.9956 10.0399 14.7768 10.1168 15.4866 10.4109C16.1965 10.7049 16.8033 11.2029 17.2302 11.8418C17.6571 12.4807 17.8849 13.2318 17.8849 14.0002C17.8849 14.5103 17.7844 15.0155 17.5892 15.4869C17.394 15.9582 17.1078 16.3865 16.747 16.7473C16.3863 17.108 15.958 17.3942 15.4866 17.5894C15.0153 17.7847 14.5101 17.8852 13.9999 17.8852Z" fill="black"/>
</svg>
