<svg width="16" height="16" viewBox="0 0 16 16" fill="none" xmlns="http://www.w3.org/2000/svg">
<path d="M4.37161 0.5H2.07895C1.20692 0.5 0.5 1.20692 0.5 2.07895C0.5 9.49119 6.50881 15.5 13.9211 15.5C14.7931 15.5 15.5 14.7931 15.5 13.9211V11.6284C15.5 10.9469 15.0851 10.334 14.4523 10.0809L12.2559 9.20237C11.6875 8.97502 11.0403 9.07756 10.57 9.46947L10.0026 9.94229C9.34037 10.4941 8.36663 10.45 7.7571 9.84043L6.15957 8.2429C5.55004 7.63337 5.50587 6.65963 6.05771 5.99742L6.53053 5.43003C6.92244 4.95974 7.02498 4.31246 6.79763 3.74407L5.91907 1.54768C5.66597 0.914918 5.05312 0.5 4.37161 0.5Z" fill="white"/>
</svg>
